<mxfile host="app.diagrams.net" modified="2022-04-17T13:27:05.444Z" agent="5.0 (Windows NT 10.0; Win64; x64) AppleWebKit/537.36 (KHTML, like Gecko) Chrome/100.0.4896.88 Safari/537.36" etag="7WAx5SkVr-0kFpNs7NIW" version="17.4.5" type="github">
  <diagram id="C5RBs43oDa-KdzZeNtuy" name="Page-1">
    <mxGraphModel dx="1443" dy="2184" grid="1" gridSize="10" guides="1" tooltips="1" connect="1" arrows="1" fold="1" page="1" pageScale="1" pageWidth="827" pageHeight="1169" math="0" shadow="0">
      <root>
        <mxCell id="WIyWlLk6GJQsqaUBKTNV-0" />
        <mxCell id="WIyWlLk6GJQsqaUBKTNV-1" parent="WIyWlLk6GJQsqaUBKTNV-0" />
        <mxCell id="IcKKIXfw-SHJYf1z34xY-64" style="edgeStyle=orthogonalEdgeStyle;rounded=0;orthogonalLoop=1;jettySize=auto;html=1;exitX=0.5;exitY=0;exitDx=0;exitDy=0;entryX=0.5;entryY=1;entryDx=0;entryDy=0;startArrow=none;startFill=0;endArrow=block;endFill=0;startSize=12;endSize=12;sourcePerimeterSpacing=0;strokeWidth=1;" edge="1" parent="WIyWlLk6GJQsqaUBKTNV-1" source="zkfFHV4jXpPFQw0GAbJ--0" target="IcKKIXfw-SHJYf1z34xY-43">
          <mxGeometry relative="1" as="geometry" />
        </mxCell>
        <mxCell id="IcKKIXfw-SHJYf1z34xY-69" style="edgeStyle=orthogonalEdgeStyle;rounded=0;orthogonalLoop=1;jettySize=auto;html=1;exitX=0.5;exitY=0;exitDx=0;exitDy=0;entryX=0.5;entryY=1;entryDx=0;entryDy=0;startArrow=none;startFill=0;endArrow=block;endFill=0;startSize=12;endSize=12;sourcePerimeterSpacing=0;strokeWidth=1;" edge="1" parent="WIyWlLk6GJQsqaUBKTNV-1" source="zkfFHV4jXpPFQw0GAbJ--0" target="IcKKIXfw-SHJYf1z34xY-47">
          <mxGeometry relative="1" as="geometry" />
        </mxCell>
        <mxCell id="zkfFHV4jXpPFQw0GAbJ--0" value="CommRequest" style="swimlane;fontStyle=1;align=center;verticalAlign=top;childLayout=stackLayout;horizontal=1;startSize=26;horizontalStack=0;resizeParent=1;resizeLast=0;collapsible=1;marginBottom=0;rounded=0;shadow=0;strokeWidth=1;" parent="WIyWlLk6GJQsqaUBKTNV-1" vertex="1">
          <mxGeometry x="220" y="40" width="290" height="294" as="geometry">
            <mxRectangle x="230" y="140" width="160" height="26" as="alternateBounds" />
          </mxGeometry>
        </mxCell>
        <mxCell id="IcKKIXfw-SHJYf1z34xY-0" value="# state: int" style="text;strokeColor=none;fillColor=none;align=left;verticalAlign=top;spacingLeft=4;spacingRight=4;overflow=hidden;rotatable=0;points=[[0,0.5],[1,0.5]];portConstraint=eastwest;" vertex="1" parent="zkfFHV4jXpPFQw0GAbJ--0">
          <mxGeometry y="26" width="290" height="26" as="geometry" />
        </mxCell>
        <mxCell id="IcKKIXfw-SHJYf1z34xY-1" value="# error: int" style="text;strokeColor=none;fillColor=none;align=left;verticalAlign=top;spacingLeft=4;spacingRight=4;overflow=hidden;rotatable=0;points=[[0,0.5],[1,0.5]];portConstraint=eastwest;" vertex="1" parent="zkfFHV4jXpPFQw0GAbJ--0">
          <mxGeometry y="52" width="290" height="26" as="geometry" />
        </mxCell>
        <mxCell id="IcKKIXfw-SHJYf1z34xY-5" value="# timeout_reason: int" style="text;strokeColor=none;fillColor=none;align=left;verticalAlign=top;spacingLeft=4;spacingRight=4;overflow=hidden;rotatable=0;points=[[0,0.5],[1,0.5]];portConstraint=eastwest;" vertex="1" parent="zkfFHV4jXpPFQw0GAbJ--0">
          <mxGeometry y="78" width="290" height="26" as="geometry" />
        </mxCell>
        <mxCell id="IcKKIXfw-SHJYf1z34xY-4" value="# wait_timeout: int" style="text;strokeColor=none;fillColor=none;align=left;verticalAlign=top;spacingLeft=4;spacingRight=4;overflow=hidden;rotatable=0;points=[[0,0.5],[1,0.5]];portConstraint=eastwest;" vertex="1" parent="zkfFHV4jXpPFQw0GAbJ--0">
          <mxGeometry y="104" width="290" height="26" as="geometry" />
        </mxCell>
        <mxCell id="zkfFHV4jXpPFQw0GAbJ--4" value="" style="line;html=1;strokeWidth=1;align=left;verticalAlign=middle;spacingTop=-1;spacingLeft=3;spacingRight=3;rotatable=0;labelPosition=right;points=[];portConstraint=eastwest;" parent="zkfFHV4jXpPFQw0GAbJ--0" vertex="1">
          <mxGeometry y="130" width="290" height="8" as="geometry" />
        </mxCell>
        <mxCell id="IcKKIXfw-SHJYf1z34xY-35" value="+ get_request_object():Â CommSchedObject *" style="text;strokeColor=none;fillColor=none;align=left;verticalAlign=top;spacingLeft=4;spacingRight=4;overflow=hidden;rotatable=0;points=[[0,0.5],[1,0.5]];portConstraint=eastwest;" vertex="1" parent="zkfFHV4jXpPFQw0GAbJ--0">
          <mxGeometry y="138" width="290" height="26" as="geometry" />
        </mxCell>
        <mxCell id="IcKKIXfw-SHJYf1z34xY-36" value="+ set_request_object(CommSchedObject*): void" style="text;strokeColor=none;fillColor=none;align=left;verticalAlign=top;spacingLeft=4;spacingRight=4;overflow=hidden;rotatable=0;points=[[0,0.5],[1,0.5]];portConstraint=eastwest;" vertex="1" parent="zkfFHV4jXpPFQw0GAbJ--0">
          <mxGeometry y="164" width="290" height="26" as="geometry" />
        </mxCell>
        <mxCell id="IcKKIXfw-SHJYf1z34xY-38" value="+ get_wait_timeout(): int" style="text;strokeColor=none;fillColor=none;align=left;verticalAlign=top;spacingLeft=4;spacingRight=4;overflow=hidden;rotatable=0;points=[[0,0.5],[1,0.5]];portConstraint=eastwest;" vertex="1" parent="zkfFHV4jXpPFQw0GAbJ--0">
          <mxGeometry y="190" width="290" height="26" as="geometry" />
        </mxCell>
        <mxCell id="IcKKIXfw-SHJYf1z34xY-37" value="+ set_wait_timeout(int): void" style="text;strokeColor=none;fillColor=none;align=left;verticalAlign=top;spacingLeft=4;spacingRight=4;overflow=hidden;rotatable=0;points=[[0,0.5],[1,0.5]];portConstraint=eastwest;" vertex="1" parent="zkfFHV4jXpPFQw0GAbJ--0">
          <mxGeometry y="216" width="290" height="26" as="geometry" />
        </mxCell>
        <mxCell id="IcKKIXfw-SHJYf1z34xY-41" value="+ dispatch(): void" style="label;fontStyle=0;strokeColor=none;fillColor=none;align=left;verticalAlign=top;overflow=hidden;spacingLeft=28;spacingRight=4;rotatable=0;points=[[0,0.5],[1,0.5]];portConstraint=eastwest;imageWidth=16;imageHeight=16;image=img/clipart/Gear_128x128.png" vertex="1" parent="zkfFHV4jXpPFQw0GAbJ--0">
          <mxGeometry y="242" width="290" height="26" as="geometry" />
        </mxCell>
        <mxCell id="IcKKIXfw-SHJYf1z34xY-42" value="# handle(int, int): void" style="label;fontStyle=0;strokeColor=none;fillColor=none;align=left;verticalAlign=top;overflow=hidden;spacingLeft=28;spacingRight=4;rotatable=0;points=[[0,0.5],[1,0.5]];portConstraint=eastwest;imageWidth=16;imageHeight=16;image=img/clipart/Gear_128x128.png" vertex="1" parent="zkfFHV4jXpPFQw0GAbJ--0">
          <mxGeometry y="268" width="290" height="26" as="geometry" />
        </mxCell>
        <mxCell id="IcKKIXfw-SHJYf1z34xY-40" style="edgeStyle=orthogonalEdgeStyle;rounded=0;orthogonalLoop=1;jettySize=auto;html=1;exitX=0.5;exitY=0;exitDx=0;exitDy=0;entryX=0.5;entryY=1;entryDx=0;entryDy=0;startArrow=none;startFill=0;endArrow=block;endFill=0;startSize=12;sourcePerimeterSpacing=0;strokeWidth=1;endSize=12;" edge="1" parent="WIyWlLk6GJQsqaUBKTNV-1" source="XhTnpqfmritNbgMokhwc-0" target="zkfFHV4jXpPFQw0GAbJ--0">
          <mxGeometry relative="1" as="geometry" />
        </mxCell>
        <mxCell id="XhTnpqfmritNbgMokhwc-0" value="WFNetworkTask" style="swimlane;fontStyle=1;align=center;verticalAlign=top;childLayout=stackLayout;horizontal=1;startSize=26;horizontalStack=0;resizeParent=1;resizeParentMax=0;resizeLast=0;collapsible=1;marginBottom=0;" parent="WIyWlLk6GJQsqaUBKTNV-1" vertex="1">
          <mxGeometry x="142.5" y="480" width="445" height="716" as="geometry" />
        </mxCell>
        <mxCell id="XhTnpqfmritNbgMokhwc-1" value="+ user_data: void *" style="text;strokeColor=none;fillColor=none;align=left;verticalAlign=top;spacingLeft=4;spacingRight=4;overflow=hidden;rotatable=0;points=[[0,0.5],[1,0.5]];portConstraint=eastwest;" parent="XhTnpqfmritNbgMokhwc-0" vertex="1">
          <mxGeometry y="26" width="445" height="26" as="geometry" />
        </mxCell>
        <mxCell id="XhTnpqfmritNbgMokhwc-16" value="+ send_timeo: int" style="text;strokeColor=none;fillColor=none;align=left;verticalAlign=top;spacingLeft=4;spacingRight=4;overflow=hidden;rotatable=0;points=[[0,0.5],[1,0.5]];portConstraint=eastwest;" parent="XhTnpqfmritNbgMokhwc-0" vertex="1">
          <mxGeometry y="52" width="445" height="26" as="geometry" />
        </mxCell>
        <mxCell id="XhTnpqfmritNbgMokhwc-17" value="+ receive_timeo: int" style="text;strokeColor=none;fillColor=none;align=left;verticalAlign=top;spacingLeft=4;spacingRight=4;overflow=hidden;rotatable=0;points=[[0,0.5],[1,0.5]];portConstraint=eastwest;" parent="XhTnpqfmritNbgMokhwc-0" vertex="1">
          <mxGeometry y="78" width="445" height="26" as="geometry" />
        </mxCell>
        <mxCell id="XhTnpqfmritNbgMokhwc-18" value="+ keep_alive_timeo: int" style="text;strokeColor=none;fillColor=none;align=left;verticalAlign=top;spacingLeft=4;spacingRight=4;overflow=hidden;rotatable=0;points=[[0,0.5],[1,0.5]];portConstraint=eastwest;" parent="XhTnpqfmritNbgMokhwc-0" vertex="1">
          <mxGeometry y="104" width="445" height="26" as="geometry" />
        </mxCell>
        <mxCell id="XhTnpqfmritNbgMokhwc-20" value="+ req: REQ" style="text;strokeColor=none;fillColor=none;align=left;verticalAlign=top;spacingLeft=4;spacingRight=4;overflow=hidden;rotatable=0;points=[[0,0.5],[1,0.5]];portConstraint=eastwest;" parent="XhTnpqfmritNbgMokhwc-0" vertex="1">
          <mxGeometry y="130" width="445" height="26" as="geometry" />
        </mxCell>
        <mxCell id="XhTnpqfmritNbgMokhwc-22" value="+ resp: RESP" style="text;strokeColor=none;fillColor=none;align=left;verticalAlign=top;spacingLeft=4;spacingRight=4;overflow=hidden;rotatable=0;points=[[0,0.5],[1,0.5]];portConstraint=eastwest;" parent="XhTnpqfmritNbgMokhwc-0" vertex="1">
          <mxGeometry y="156" width="445" height="26" as="geometry" />
        </mxCell>
        <mxCell id="XhTnpqfmritNbgMokhwc-24" value="+ callback: std:function&lt;void (WFNetworkTask&lt;REQ, RESP&gt; *)&gt;" style="text;strokeColor=none;fillColor=none;align=left;verticalAlign=top;spacingLeft=4;spacingRight=4;overflow=hidden;rotatable=0;points=[[0,0.5],[1,0.5]];portConstraint=eastwest;" parent="XhTnpqfmritNbgMokhwc-0" vertex="1">
          <mxGeometry y="182" width="445" height="26" as="geometry" />
        </mxCell>
        <mxCell id="XhTnpqfmritNbgMokhwc-2" value="" style="line;strokeWidth=1;fillColor=none;align=left;verticalAlign=middle;spacingTop=-1;spacingLeft=3;spacingRight=3;rotatable=0;labelPosition=right;points=[];portConstraint=eastwest;" parent="XhTnpqfmritNbgMokhwc-0" vertex="1">
          <mxGeometry y="208" width="445" height="8" as="geometry" />
        </mxCell>
        <mxCell id="XhTnpqfmritNbgMokhwc-3" value="+ start(): void&#xa;&#xa;&#xa;" style="text;strokeColor=none;fillColor=none;align=left;verticalAlign=top;spacingLeft=4;spacingRight=4;overflow=hidden;rotatable=0;points=[[0,0.5],[1,0.5]];portConstraint=eastwest;" parent="XhTnpqfmritNbgMokhwc-0" vertex="1">
          <mxGeometry y="216" width="445" height="30" as="geometry" />
        </mxCell>
        <mxCell id="XhTnpqfmritNbgMokhwc-14" value="+ dismiss(): void" style="text;strokeColor=none;fillColor=none;align=left;verticalAlign=top;spacingLeft=4;spacingRight=4;overflow=hidden;rotatable=0;points=[[0,0.5],[1,0.5]];portConstraint=eastwest;" parent="XhTnpqfmritNbgMokhwc-0" vertex="1">
          <mxGeometry y="246" width="445" height="26" as="geometry" />
        </mxCell>
        <mxCell id="XhTnpqfmritNbgMokhwc-13" value="+ get_req(): REQ *" style="text;strokeColor=none;fillColor=none;align=left;verticalAlign=top;spacingLeft=4;spacingRight=4;overflow=hidden;rotatable=0;points=[[0,0.5],[1,0.5]];portConstraint=eastwest;" parent="XhTnpqfmritNbgMokhwc-0" vertex="1">
          <mxGeometry y="272" width="445" height="26" as="geometry" />
        </mxCell>
        <mxCell id="XhTnpqfmritNbgMokhwc-12" value="+ get_resp(): RESP *" style="text;strokeColor=none;fillColor=none;align=left;verticalAlign=top;spacingLeft=4;spacingRight=4;overflow=hidden;rotatable=0;points=[[0,0.5],[1,0.5]];portConstraint=eastwest;" parent="XhTnpqfmritNbgMokhwc-0" vertex="1">
          <mxGeometry y="298" width="445" height="26" as="geometry" />
        </mxCell>
        <mxCell id="XhTnpqfmritNbgMokhwc-11" value="+ get_state(): int" style="text;strokeColor=none;fillColor=none;align=left;verticalAlign=top;spacingLeft=4;spacingRight=4;overflow=hidden;rotatable=0;points=[[0,0.5],[1,0.5]];portConstraint=eastwest;" parent="XhTnpqfmritNbgMokhwc-0" vertex="1">
          <mxGeometry y="324" width="445" height="26" as="geometry" />
        </mxCell>
        <mxCell id="XhTnpqfmritNbgMokhwc-10" value="+ get_error() :int" style="text;strokeColor=none;fillColor=none;align=left;verticalAlign=top;spacingLeft=4;spacingRight=4;overflow=hidden;rotatable=0;points=[[0,0.5],[1,0.5]];portConstraint=eastwest;" parent="XhTnpqfmritNbgMokhwc-0" vertex="1">
          <mxGeometry y="350" width="445" height="26" as="geometry" />
        </mxCell>
        <mxCell id="XhTnpqfmritNbgMokhwc-9" value="+Â get_timeout_reason(): int" style="text;strokeColor=none;fillColor=none;align=left;verticalAlign=top;spacingLeft=4;spacingRight=4;overflow=hidden;rotatable=0;points=[[0,0.5],[1,0.5]];portConstraint=eastwest;" parent="XhTnpqfmritNbgMokhwc-0" vertex="1">
          <mxGeometry y="376" width="445" height="26" as="geometry" />
        </mxCell>
        <mxCell id="XhTnpqfmritNbgMokhwc-8" value="+ get_task_seq() : long long" style="text;strokeColor=none;fillColor=none;align=left;verticalAlign=top;spacingLeft=4;spacingRight=4;overflow=hidden;rotatable=0;points=[[0,0.5],[1,0.5]];portConstraint=eastwest;" parent="XhTnpqfmritNbgMokhwc-0" vertex="1">
          <mxGeometry y="402" width="445" height="26" as="geometry" />
        </mxCell>
        <mxCell id="XhTnpqfmritNbgMokhwc-7" value="+ get_peer_addr() : int" style="text;strokeColor=none;fillColor=none;align=left;verticalAlign=top;spacingLeft=4;spacingRight=4;overflow=hidden;rotatable=0;points=[[0,0.5],[1,0.5]];portConstraint=eastwest;" parent="XhTnpqfmritNbgMokhwc-0" vertex="1">
          <mxGeometry y="428" width="445" height="26" as="geometry" />
        </mxCell>
        <mxCell id="XhTnpqfmritNbgMokhwc-15" value="+ get_connect(): WFConnection *" style="label;fontStyle=0;strokeColor=none;fillColor=none;align=left;verticalAlign=top;overflow=hidden;spacingLeft=28;spacingRight=4;rotatable=0;points=[[0,0.5],[1,0.5]];portConstraint=eastwest;imageWidth=16;imageHeight=16;image=img/clipart/Gear_128x128.png" parent="XhTnpqfmritNbgMokhwc-0" vertex="1">
          <mxGeometry y="454" width="445" height="26" as="geometry" />
        </mxCell>
        <mxCell id="IcKKIXfw-SHJYf1z34xY-122" value="+ set_send_timeout(int): void" style="text;strokeColor=none;fillColor=none;align=left;verticalAlign=top;spacingLeft=4;spacingRight=4;overflow=hidden;rotatable=0;points=[[0,0.5],[1,0.5]];portConstraint=eastwest;" vertex="1" parent="XhTnpqfmritNbgMokhwc-0">
          <mxGeometry y="480" width="445" height="26" as="geometry" />
        </mxCell>
        <mxCell id="IcKKIXfw-SHJYf1z34xY-123" value="+ set_receive_timeout(int): void" style="text;strokeColor=none;fillColor=none;align=left;verticalAlign=top;spacingLeft=4;spacingRight=4;overflow=hidden;rotatable=0;points=[[0,0.5],[1,0.5]];portConstraint=eastwest;" vertex="1" parent="XhTnpqfmritNbgMokhwc-0">
          <mxGeometry y="506" width="445" height="26" as="geometry" />
        </mxCell>
        <mxCell id="IcKKIXfw-SHJYf1z34xY-124" value="+ set_keep_alive(int): void" style="text;strokeColor=none;fillColor=none;align=left;verticalAlign=top;spacingLeft=4;spacingRight=4;overflow=hidden;rotatable=0;points=[[0,0.5],[1,0.5]];portConstraint=eastwest;" vertex="1" parent="XhTnpqfmritNbgMokhwc-0">
          <mxGeometry y="532" width="445" height="26" as="geometry" />
        </mxCell>
        <mxCell id="IcKKIXfw-SHJYf1z34xY-126" value="+ noreply(): void" style="text;strokeColor=none;fillColor=none;align=left;verticalAlign=top;spacingLeft=4;spacingRight=4;overflow=hidden;rotatable=0;points=[[0,0.5],[1,0.5]];portConstraint=eastwest;" vertex="1" parent="XhTnpqfmritNbgMokhwc-0">
          <mxGeometry y="558" width="445" height="26" as="geometry" />
        </mxCell>
        <mxCell id="IcKKIXfw-SHJYf1z34xY-129" value="+ push(const void *, size_t): int" style="label;fontStyle=0;strokeColor=none;fillColor=none;align=left;verticalAlign=top;overflow=hidden;spacingLeft=28;spacingRight=4;rotatable=0;points=[[0,0.5],[1,0.5]];portConstraint=eastwest;imageWidth=16;imageHeight=16;image=img/clipart/Gear_128x128.png" vertex="1" parent="XhTnpqfmritNbgMokhwc-0">
          <mxGeometry y="584" width="445" height="26" as="geometry" />
        </mxCell>
        <mxCell id="IcKKIXfw-SHJYf1z34xY-128" value="+ set_callback(std::function&lt;void (WFNetworkTask&lt;REQ, RESP&gt; *)&gt; ): void" style="text;strokeColor=none;fillColor=none;align=left;verticalAlign=top;spacingLeft=4;spacingRight=4;overflow=hidden;rotatable=0;points=[[0,0.5],[1,0.5]];portConstraint=eastwest;" vertex="1" parent="XhTnpqfmritNbgMokhwc-0">
          <mxGeometry y="610" width="445" height="26" as="geometry" />
        </mxCell>
        <mxCell id="IcKKIXfw-SHJYf1z34xY-134" value="# send_timeout(): int" style="label;fontStyle=0;strokeColor=none;fillColor=none;align=left;verticalAlign=top;overflow=hidden;spacingLeft=28;spacingRight=4;rotatable=0;points=[[0,0.5],[1,0.5]];portConstraint=eastwest;imageWidth=16;imageHeight=16;image=img/clipart/Gear_128x128.png" vertex="1" parent="XhTnpqfmritNbgMokhwc-0">
          <mxGeometry y="636" width="445" height="28" as="geometry" />
        </mxCell>
        <mxCell id="IcKKIXfw-SHJYf1z34xY-135" value="# receive_timeout()Â : int" style="label;fontStyle=0;strokeColor=none;fillColor=none;align=left;verticalAlign=top;overflow=hidden;spacingLeft=28;spacingRight=4;rotatable=0;points=[[0,0.5],[1,0.5]];portConstraint=eastwest;imageWidth=16;imageHeight=16;image=img/clipart/Gear_128x128.png" vertex="1" parent="XhTnpqfmritNbgMokhwc-0">
          <mxGeometry y="664" width="445" height="26" as="geometry" />
        </mxCell>
        <mxCell id="IcKKIXfw-SHJYf1z34xY-136" value="# keep_alive_timeout(): int" style="label;fontStyle=0;strokeColor=none;fillColor=none;align=left;verticalAlign=top;overflow=hidden;spacingLeft=28;spacingRight=4;rotatable=0;points=[[0,0.5],[1,0.5]];portConstraint=eastwest;imageWidth=16;imageHeight=16;image=img/clipart/Gear_128x128.png" vertex="1" parent="XhTnpqfmritNbgMokhwc-0">
          <mxGeometry y="690" width="445" height="26" as="geometry" />
        </mxCell>
        <mxCell id="IcKKIXfw-SHJYf1z34xY-6" value="#CommSchedObject" style="swimlane;fontStyle=1;align=center;verticalAlign=top;childLayout=stackLayout;horizontal=1;startSize=26;horizontalStack=0;resizeParent=1;resizeParentMax=0;resizeLast=0;collapsible=1;marginBottom=0;" vertex="1" parent="WIyWlLk6GJQsqaUBKTNV-1">
          <mxGeometry x="-340" y="334" width="310" height="112" as="geometry" />
        </mxCell>
        <mxCell id="IcKKIXfw-SHJYf1z34xY-7" value="# max_load: size_t" style="text;strokeColor=none;fillColor=none;align=left;verticalAlign=top;spacingLeft=4;spacingRight=4;overflow=hidden;rotatable=0;points=[[0,0.5],[1,0.5]];portConstraint=eastwest;" vertex="1" parent="IcKKIXfw-SHJYf1z34xY-6">
          <mxGeometry y="26" width="310" height="26" as="geometry" />
        </mxCell>
        <mxCell id="IcKKIXfw-SHJYf1z34xY-154" value="# cur_load: size_t" style="text;strokeColor=none;fillColor=none;align=left;verticalAlign=top;spacingLeft=4;spacingRight=4;overflow=hidden;rotatable=0;points=[[0,0.5],[1,0.5]];portConstraint=eastwest;" vertex="1" parent="IcKKIXfw-SHJYf1z34xY-6">
          <mxGeometry y="52" width="310" height="26" as="geometry" />
        </mxCell>
        <mxCell id="IcKKIXfw-SHJYf1z34xY-8" value="" style="line;strokeWidth=1;fillColor=none;align=left;verticalAlign=middle;spacingTop=-1;spacingLeft=3;spacingRight=3;rotatable=0;labelPosition=right;points=[];portConstraint=eastwest;" vertex="1" parent="IcKKIXfw-SHJYf1z34xY-6">
          <mxGeometry y="78" width="310" height="8" as="geometry" />
        </mxCell>
        <mxCell id="IcKKIXfw-SHJYf1z34xY-155" value="+ acquire(int): CommTarget *" style="label;fontStyle=0;strokeColor=none;fillColor=none;align=left;verticalAlign=top;overflow=hidden;spacingLeft=28;spacingRight=4;rotatable=0;points=[[0,0.5],[1,0.5]];portConstraint=eastwest;imageWidth=16;imageHeight=16;image=img/clipart/Gear_128x128.png" vertex="1" parent="IcKKIXfw-SHJYf1z34xY-6">
          <mxGeometry y="86" width="310" height="26" as="geometry" />
        </mxCell>
        <mxCell id="IcKKIXfw-SHJYf1z34xY-157" style="edgeStyle=orthogonalEdgeStyle;rounded=0;orthogonalLoop=1;jettySize=auto;html=1;exitX=0.5;exitY=0;exitDx=0;exitDy=0;entryX=0.5;entryY=1;entryDx=0;entryDy=0;startArrow=none;startFill=0;endArrow=open;endFill=0;startSize=12;endSize=12;sourcePerimeterSpacing=0;strokeWidth=1;dashed=1;" edge="1" parent="WIyWlLk6GJQsqaUBKTNV-1" source="IcKKIXfw-SHJYf1z34xY-14" target="IcKKIXfw-SHJYf1z34xY-6">
          <mxGeometry relative="1" as="geometry" />
        </mxCell>
        <mxCell id="IcKKIXfw-SHJYf1z34xY-14" value="#CommScheduler" style="swimlane;fontStyle=1;align=center;verticalAlign=top;childLayout=stackLayout;horizontal=1;startSize=26;horizontalStack=0;resizeParent=1;resizeParentMax=0;resizeLast=0;collapsible=1;marginBottom=0;" vertex="1" parent="WIyWlLk6GJQsqaUBKTNV-1">
          <mxGeometry x="-400" y="570" width="430" height="190" as="geometry" />
        </mxCell>
        <mxCell id="IcKKIXfw-SHJYf1z34xY-15" value="+ comm: Communicator" style="text;strokeColor=none;fillColor=none;align=left;verticalAlign=top;spacingLeft=4;spacingRight=4;overflow=hidden;rotatable=0;points=[[0,0.5],[1,0.5]];portConstraint=eastwest;" vertex="1" parent="IcKKIXfw-SHJYf1z34xY-14">
          <mxGeometry y="26" width="430" height="26" as="geometry" />
        </mxCell>
        <mxCell id="IcKKIXfw-SHJYf1z34xY-16" value="" style="line;strokeWidth=1;fillColor=none;align=left;verticalAlign=middle;spacingTop=-1;spacingLeft=3;spacingRight=3;rotatable=0;labelPosition=right;points=[];portConstraint=eastwest;" vertex="1" parent="IcKKIXfw-SHJYf1z34xY-14">
          <mxGeometry y="52" width="430" height="8" as="geometry" />
        </mxCell>
        <mxCell id="IcKKIXfw-SHJYf1z34xY-149" value="+ init(size_t, size_t): int" style="text;strokeColor=none;fillColor=none;align=left;verticalAlign=top;spacingLeft=4;spacingRight=4;overflow=hidden;rotatable=0;points=[[0,0.5],[1,0.5]];portConstraint=eastwest;" vertex="1" parent="IcKKIXfw-SHJYf1z34xY-14">
          <mxGeometry y="60" width="430" height="26" as="geometry" />
        </mxCell>
        <mxCell id="IcKKIXfw-SHJYf1z34xY-150" value="+ deinit(): void" style="text;strokeColor=none;fillColor=none;align=left;verticalAlign=top;spacingLeft=4;spacingRight=4;overflow=hidden;rotatable=0;points=[[0,0.5],[1,0.5]];portConstraint=eastwest;" vertex="1" parent="IcKKIXfw-SHJYf1z34xY-14">
          <mxGeometry y="86" width="430" height="26" as="geometry" />
        </mxCell>
        <mxCell id="IcKKIXfw-SHJYf1z34xY-17" value="+ request(CommSession*ï¼CommSchedObjectï¼intï¼ CommTarget **): int" style="text;strokeColor=none;fillColor=none;align=left;verticalAlign=top;spacingLeft=4;spacingRight=4;overflow=hidden;rotatable=0;points=[[0,0.5],[1,0.5]];portConstraint=eastwest;" vertex="1" parent="IcKKIXfw-SHJYf1z34xY-14">
          <mxGeometry y="112" width="430" height="26" as="geometry" />
        </mxCell>
        <mxCell id="IcKKIXfw-SHJYf1z34xY-151" value="+ some function for services/sleepers/file aio" style="text;strokeColor=none;fillColor=none;align=left;verticalAlign=top;spacingLeft=4;spacingRight=4;overflow=hidden;rotatable=0;points=[[0,0.5],[1,0.5]];portConstraint=eastwest;" vertex="1" parent="IcKKIXfw-SHJYf1z34xY-14">
          <mxGeometry y="138" width="430" height="26" as="geometry" />
        </mxCell>
        <mxCell id="IcKKIXfw-SHJYf1z34xY-153" value="+ increase_handler_thread(): int" style="text;strokeColor=none;fillColor=none;align=left;verticalAlign=top;spacingLeft=4;spacingRight=4;overflow=hidden;rotatable=0;points=[[0,0.5],[1,0.5]];portConstraint=eastwest;" vertex="1" parent="IcKKIXfw-SHJYf1z34xY-14">
          <mxGeometry y="164" width="430" height="26" as="geometry" />
        </mxCell>
        <mxCell id="IcKKIXfw-SHJYf1z34xY-18" value="#CommTarget" style="swimlane;fontStyle=1;align=center;verticalAlign=top;childLayout=stackLayout;horizontal=1;startSize=26;horizontalStack=0;resizeParent=1;resizeParentMax=0;resizeLast=0;collapsible=1;marginBottom=0;" vertex="1" parent="WIyWlLk6GJQsqaUBKTNV-1">
          <mxGeometry x="-280" y="-110" width="310" height="346" as="geometry" />
        </mxCell>
        <mxCell id="IcKKIXfw-SHJYf1z34xY-19" value="- addr: struct sockaddr" style="text;strokeColor=none;fillColor=none;align=left;verticalAlign=top;spacingLeft=4;spacingRight=4;overflow=hidden;rotatable=0;points=[[0,0.5],[1,0.5]];portConstraint=eastwest;" vertex="1" parent="IcKKIXfw-SHJYf1z34xY-18">
          <mxGeometry y="26" width="310" height="26" as="geometry" />
        </mxCell>
        <mxCell id="IcKKIXfw-SHJYf1z34xY-144" value="- addrlen: socklen_t" style="text;strokeColor=none;fillColor=none;align=left;verticalAlign=top;spacingLeft=4;spacingRight=4;overflow=hidden;rotatable=0;points=[[0,0.5],[1,0.5]];portConstraint=eastwest;" vertex="1" parent="IcKKIXfw-SHJYf1z34xY-18">
          <mxGeometry y="52" width="310" height="26" as="geometry" />
        </mxCell>
        <mxCell id="IcKKIXfw-SHJYf1z34xY-145" value="+ connect_timeout: int" style="text;strokeColor=none;fillColor=none;align=left;verticalAlign=top;spacingLeft=4;spacingRight=4;overflow=hidden;rotatable=0;points=[[0,0.5],[1,0.5]];portConstraint=eastwest;" vertex="1" parent="IcKKIXfw-SHJYf1z34xY-18">
          <mxGeometry y="78" width="310" height="26" as="geometry" />
        </mxCell>
        <mxCell id="IcKKIXfw-SHJYf1z34xY-146" value="+ response_timeout: int" style="text;strokeColor=none;fillColor=none;align=left;verticalAlign=top;spacingLeft=4;spacingRight=4;overflow=hidden;rotatable=0;points=[[0,0.5],[1,0.5]];portConstraint=eastwest;" vertex="1" parent="IcKKIXfw-SHJYf1z34xY-18">
          <mxGeometry y="104" width="310" height="26" as="geometry" />
        </mxCell>
        <mxCell id="IcKKIXfw-SHJYf1z34xY-147" value="+ idle_list: struct list_head" style="text;strokeColor=none;fillColor=none;align=left;verticalAlign=top;spacingLeft=4;spacingRight=4;overflow=hidden;rotatable=0;points=[[0,0.5],[1,0.5]];portConstraint=eastwest;" vertex="1" parent="IcKKIXfw-SHJYf1z34xY-18">
          <mxGeometry y="130" width="310" height="26" as="geometry" />
        </mxCell>
        <mxCell id="IcKKIXfw-SHJYf1z34xY-148" value="+ mutex: pthread_mutex_t" style="text;strokeColor=none;fillColor=none;align=left;verticalAlign=top;spacingLeft=4;spacingRight=4;overflow=hidden;rotatable=0;points=[[0,0.5],[1,0.5]];portConstraint=eastwest;" vertex="1" parent="IcKKIXfw-SHJYf1z34xY-18">
          <mxGeometry y="156" width="310" height="26" as="geometry" />
        </mxCell>
        <mxCell id="IcKKIXfw-SHJYf1z34xY-20" value="" style="line;strokeWidth=1;fillColor=none;align=left;verticalAlign=middle;spacingTop=-1;spacingLeft=3;spacingRight=3;rotatable=0;labelPosition=right;points=[];portConstraint=eastwest;" vertex="1" parent="IcKKIXfw-SHJYf1z34xY-18">
          <mxGeometry y="182" width="310" height="8" as="geometry" />
        </mxCell>
        <mxCell id="IcKKIXfw-SHJYf1z34xY-21" value="+ init(const struct sockaddr, socklen_t, int,int): int" style="text;strokeColor=none;fillColor=none;align=left;verticalAlign=top;spacingLeft=4;spacingRight=4;overflow=hidden;rotatable=0;points=[[0,0.5],[1,0.5]];portConstraint=eastwest;" vertex="1" parent="IcKKIXfw-SHJYf1z34xY-18">
          <mxGeometry y="190" width="310" height="26" as="geometry" />
        </mxCell>
        <mxCell id="IcKKIXfw-SHJYf1z34xY-137" value="+ deinit(): void" style="text;strokeColor=none;fillColor=none;align=left;verticalAlign=top;spacingLeft=4;spacingRight=4;overflow=hidden;rotatable=0;points=[[0,0.5],[1,0.5]];portConstraint=eastwest;" vertex="1" parent="IcKKIXfw-SHJYf1z34xY-18">
          <mxGeometry y="216" width="310" height="26" as="geometry" />
        </mxCell>
        <mxCell id="IcKKIXfw-SHJYf1z34xY-138" value="+ get_addr(const struct sockaddr,socklen_t): void" style="text;strokeColor=none;fillColor=none;align=left;verticalAlign=top;spacingLeft=4;spacingRight=4;overflow=hidden;rotatable=0;points=[[0,0.5],[1,0.5]];portConstraint=eastwest;" vertex="1" parent="IcKKIXfw-SHJYf1z34xY-18">
          <mxGeometry y="242" width="310" height="26" as="geometry" />
        </mxCell>
        <mxCell id="IcKKIXfw-SHJYf1z34xY-141" value="- create_connect_fd: int" style="label;fontStyle=0;strokeColor=none;fillColor=none;align=left;verticalAlign=top;overflow=hidden;spacingLeft=28;spacingRight=4;rotatable=0;points=[[0,0.5],[1,0.5]];portConstraint=eastwest;imageWidth=16;imageHeight=16;image=img/clipart/Gear_128x128.png" vertex="1" parent="IcKKIXfw-SHJYf1z34xY-18">
          <mxGeometry y="268" width="310" height="26" as="geometry" />
        </mxCell>
        <mxCell id="IcKKIXfw-SHJYf1z34xY-142" value="-new_connection(int): CommConnection*" style="label;fontStyle=0;strokeColor=none;fillColor=none;align=left;verticalAlign=top;overflow=hidden;spacingLeft=28;spacingRight=4;rotatable=0;points=[[0,0.5],[1,0.5]];portConstraint=eastwest;imageWidth=16;imageHeight=16;image=img/clipart/Gear_128x128.png" vertex="1" parent="IcKKIXfw-SHJYf1z34xY-18">
          <mxGeometry y="294" width="310" height="26" as="geometry" />
        </mxCell>
        <mxCell id="IcKKIXfw-SHJYf1z34xY-143" value="+ release(int): void" style="label;fontStyle=0;strokeColor=none;fillColor=none;align=left;verticalAlign=top;overflow=hidden;spacingLeft=28;spacingRight=4;rotatable=0;points=[[0,0.5],[1,0.5]];portConstraint=eastwest;imageWidth=16;imageHeight=16;image=img/clipart/Gear_128x128.png" vertex="1" parent="IcKKIXfw-SHJYf1z34xY-18">
          <mxGeometry y="320" width="310" height="26" as="geometry" />
        </mxCell>
        <mxCell id="IcKKIXfw-SHJYf1z34xY-30" style="edgeStyle=orthogonalEdgeStyle;rounded=0;orthogonalLoop=1;jettySize=auto;html=1;exitX=1;exitY=0.5;exitDx=0;exitDy=0;strokeColor=none;" edge="1" parent="WIyWlLk6GJQsqaUBKTNV-1" source="IcKKIXfw-SHJYf1z34xY-19">
          <mxGeometry relative="1" as="geometry">
            <mxPoint x="160" y="60" as="targetPoint" />
          </mxGeometry>
        </mxCell>
        <mxCell id="IcKKIXfw-SHJYf1z34xY-31" style="edgeStyle=orthogonalEdgeStyle;rounded=0;orthogonalLoop=1;jettySize=auto;html=1;exitX=0;exitY=0.5;exitDx=0;exitDy=0;entryX=1;entryY=0.5;entryDx=0;entryDy=0;endArrow=none;endFill=0;startArrow=diamondThin;startFill=1;strokeWidth=1;sourcePerimeterSpacing=0;startSize=12;" edge="1" parent="WIyWlLk6GJQsqaUBKTNV-1" source="IcKKIXfw-SHJYf1z34xY-0" target="IcKKIXfw-SHJYf1z34xY-19">
          <mxGeometry relative="1" as="geometry" />
        </mxCell>
        <mxCell id="IcKKIXfw-SHJYf1z34xY-33" style="edgeStyle=orthogonalEdgeStyle;rounded=0;orthogonalLoop=1;jettySize=auto;html=1;exitX=0;exitY=0.5;exitDx=0;exitDy=0;entryX=1;entryY=0.5;entryDx=0;entryDy=0;startArrow=diamondThin;startFill=1;endArrow=none;endFill=0;startSize=12;sourcePerimeterSpacing=0;strokeWidth=1;" edge="1" parent="WIyWlLk6GJQsqaUBKTNV-1" source="IcKKIXfw-SHJYf1z34xY-0" target="IcKKIXfw-SHJYf1z34xY-7">
          <mxGeometry relative="1" as="geometry">
            <Array as="points">
              <mxPoint x="120" y="79" />
              <mxPoint x="120" y="373" />
            </Array>
          </mxGeometry>
        </mxCell>
        <mxCell id="IcKKIXfw-SHJYf1z34xY-34" style="edgeStyle=orthogonalEdgeStyle;rounded=0;orthogonalLoop=1;jettySize=auto;html=1;exitX=0;exitY=0.5;exitDx=0;exitDy=0;entryX=1;entryY=0.5;entryDx=0;entryDy=0;startArrow=diamondThin;startFill=1;endArrow=none;endFill=0;startSize=12;sourcePerimeterSpacing=0;strokeWidth=1;" edge="1" parent="WIyWlLk6GJQsqaUBKTNV-1" source="IcKKIXfw-SHJYf1z34xY-0" target="IcKKIXfw-SHJYf1z34xY-15">
          <mxGeometry relative="1" as="geometry" />
        </mxCell>
        <mxCell id="IcKKIXfw-SHJYf1z34xY-43" value="SubTask" style="swimlane;fontStyle=1;align=center;verticalAlign=top;childLayout=stackLayout;horizontal=1;startSize=26;horizontalStack=0;resizeParent=1;resizeParentMax=0;resizeLast=0;collapsible=1;marginBottom=0;" vertex="1" parent="WIyWlLk6GJQsqaUBKTNV-1">
          <mxGeometry x="130" y="-396" width="210" height="242" as="geometry" />
        </mxCell>
        <mxCell id="IcKKIXfw-SHJYf1z34xY-110" value="- entry: SubTask **" style="text;strokeColor=none;fillColor=none;align=left;verticalAlign=top;spacingLeft=4;spacingRight=4;overflow=hidden;rotatable=0;points=[[0,0.5],[1,0.5]];portConstraint=eastwest;" vertex="1" parent="IcKKIXfw-SHJYf1z34xY-43">
          <mxGeometry y="26" width="210" height="26" as="geometry" />
        </mxCell>
        <mxCell id="IcKKIXfw-SHJYf1z34xY-44" value="- pointer: void *" style="text;strokeColor=none;fillColor=none;align=left;verticalAlign=top;spacingLeft=4;spacingRight=4;overflow=hidden;rotatable=0;points=[[0,0.5],[1,0.5]];portConstraint=eastwest;" vertex="1" parent="IcKKIXfw-SHJYf1z34xY-43">
          <mxGeometry y="52" width="210" height="26" as="geometry" />
        </mxCell>
        <mxCell id="IcKKIXfw-SHJYf1z34xY-45" value="" style="line;strokeWidth=1;fillColor=none;align=left;verticalAlign=middle;spacingTop=-1;spacingLeft=3;spacingRight=3;rotatable=0;labelPosition=right;points=[];portConstraint=eastwest;" vertex="1" parent="IcKKIXfw-SHJYf1z34xY-43">
          <mxGeometry y="78" width="210" height="8" as="geometry" />
        </mxCell>
        <mxCell id="IcKKIXfw-SHJYf1z34xY-58" value="+ dispatch(): void" style="label;fontStyle=0;strokeColor=none;fillColor=none;align=left;verticalAlign=top;overflow=hidden;spacingLeft=28;spacingRight=4;rotatable=0;points=[[0,0.5],[1,0.5]];portConstraint=eastwest;imageWidth=16;imageHeight=16;image=img/clipart/Gear_128x128.png" vertex="1" parent="IcKKIXfw-SHJYf1z34xY-43">
          <mxGeometry y="86" width="210" height="26" as="geometry" />
        </mxCell>
        <mxCell id="IcKKIXfw-SHJYf1z34xY-59" value="- done(): SubTask *" style="label;fontStyle=0;strokeColor=none;fillColor=none;align=left;verticalAlign=top;overflow=hidden;spacingLeft=28;spacingRight=4;rotatable=0;points=[[0,0.5],[1,0.5]];portConstraint=eastwest;imageWidth=16;imageHeight=16;image=img/clipart/Gear_128x128.png" vertex="1" parent="IcKKIXfw-SHJYf1z34xY-43">
          <mxGeometry y="112" width="210" height="26" as="geometry" />
        </mxCell>
        <mxCell id="IcKKIXfw-SHJYf1z34xY-60" value="# subtask_done(): void" style="text;strokeColor=none;fillColor=none;align=left;verticalAlign=top;spacingLeft=4;spacingRight=4;overflow=hidden;rotatable=0;points=[[0,0.5],[1,0.5]];portConstraint=eastwest;" vertex="1" parent="IcKKIXfw-SHJYf1z34xY-43">
          <mxGeometry y="138" width="210" height="26" as="geometry" />
        </mxCell>
        <mxCell id="IcKKIXfw-SHJYf1z34xY-61" value="+ get_parent_task(): ParallelTask *" style="text;strokeColor=none;fillColor=none;align=left;verticalAlign=top;spacingLeft=4;spacingRight=4;overflow=hidden;rotatable=0;points=[[0,0.5],[1,0.5]];portConstraint=eastwest;" vertex="1" parent="IcKKIXfw-SHJYf1z34xY-43">
          <mxGeometry y="164" width="210" height="26" as="geometry" />
        </mxCell>
        <mxCell id="IcKKIXfw-SHJYf1z34xY-62" value="+ get_pointer(): void *" style="text;strokeColor=none;fillColor=none;align=left;verticalAlign=top;spacingLeft=4;spacingRight=4;overflow=hidden;rotatable=0;points=[[0,0.5],[1,0.5]];portConstraint=eastwest;" vertex="1" parent="IcKKIXfw-SHJYf1z34xY-43">
          <mxGeometry y="190" width="210" height="26" as="geometry" />
        </mxCell>
        <mxCell id="IcKKIXfw-SHJYf1z34xY-63" value="+ set_pointer(void *): void" style="text;strokeColor=none;fillColor=none;align=left;verticalAlign=top;spacingLeft=4;spacingRight=4;overflow=hidden;rotatable=0;points=[[0,0.5],[1,0.5]];portConstraint=eastwest;" vertex="1" parent="IcKKIXfw-SHJYf1z34xY-43">
          <mxGeometry y="216" width="210" height="26" as="geometry" />
        </mxCell>
        <mxCell id="IcKKIXfw-SHJYf1z34xY-159" style="edgeStyle=orthogonalEdgeStyle;rounded=0;orthogonalLoop=1;jettySize=auto;html=1;exitX=0.5;exitY=0;exitDx=0;exitDy=0;entryX=0;entryY=0.5;entryDx=0;entryDy=0;dashed=1;startArrow=none;startFill=0;endArrow=open;endFill=0;startSize=12;endSize=12;sourcePerimeterSpacing=0;strokeWidth=1;" edge="1" parent="WIyWlLk6GJQsqaUBKTNV-1" source="IcKKIXfw-SHJYf1z34xY-47" target="IcKKIXfw-SHJYf1z34xY-146">
          <mxGeometry relative="1" as="geometry">
            <Array as="points">
              <mxPoint x="557" y="-626" />
              <mxPoint x="-370" y="-626" />
              <mxPoint x="-370" y="7" />
            </Array>
          </mxGeometry>
        </mxCell>
        <mxCell id="IcKKIXfw-SHJYf1z34xY-47" value="CommSession" style="swimlane;fontStyle=1;align=center;verticalAlign=top;childLayout=stackLayout;horizontal=1;startSize=26;horizontalStack=0;resizeParent=1;resizeParentMax=0;resizeLast=0;collapsible=1;marginBottom=0;" vertex="1" parent="WIyWlLk6GJQsqaUBKTNV-1">
          <mxGeometry x="414" y="-606" width="286" height="452" as="geometry" />
        </mxCell>
        <mxCell id="IcKKIXfw-SHJYf1z34xY-48" value="- seq: long long" style="text;strokeColor=none;fillColor=none;align=left;verticalAlign=top;spacingLeft=4;spacingRight=4;overflow=hidden;rotatable=0;points=[[0,0.5],[1,0.5]];portConstraint=eastwest;" vertex="1" parent="IcKKIXfw-SHJYf1z34xY-47">
          <mxGeometry y="26" width="286" height="26" as="geometry" />
        </mxCell>
        <mxCell id="IcKKIXfw-SHJYf1z34xY-82" value="- begin_time: struct timespec" style="text;strokeColor=none;fillColor=none;align=left;verticalAlign=top;spacingLeft=4;spacingRight=4;overflow=hidden;rotatable=0;points=[[0,0.5],[1,0.5]];portConstraint=eastwest;" vertex="1" parent="IcKKIXfw-SHJYf1z34xY-47">
          <mxGeometry y="52" width="286" height="26" as="geometry" />
        </mxCell>
        <mxCell id="IcKKIXfw-SHJYf1z34xY-83" value="- timeout: int" style="text;strokeColor=none;fillColor=none;align=left;verticalAlign=top;spacingLeft=4;spacingRight=4;overflow=hidden;rotatable=0;points=[[0,0.5],[1,0.5]];portConstraint=eastwest;" vertex="1" parent="IcKKIXfw-SHJYf1z34xY-47">
          <mxGeometry y="78" width="286" height="26" as="geometry" />
        </mxCell>
        <mxCell id="IcKKIXfw-SHJYf1z34xY-84" value="- passive: int" style="text;strokeColor=none;fillColor=none;align=left;verticalAlign=top;spacingLeft=4;spacingRight=4;overflow=hidden;rotatable=0;points=[[0,0.5],[1,0.5]];portConstraint=eastwest;" vertex="1" parent="IcKKIXfw-SHJYf1z34xY-47">
          <mxGeometry y="104" width="286" height="26" as="geometry" />
        </mxCell>
        <mxCell id="IcKKIXfw-SHJYf1z34xY-49" value="" style="line;strokeWidth=1;fillColor=none;align=left;verticalAlign=middle;spacingTop=-1;spacingLeft=3;spacingRight=3;rotatable=0;labelPosition=right;points=[];portConstraint=eastwest;" vertex="1" parent="IcKKIXfw-SHJYf1z34xY-47">
          <mxGeometry y="130" width="286" height="8" as="geometry" />
        </mxCell>
        <mxCell id="IcKKIXfw-SHJYf1z34xY-66" value="- message_out(): CommMessageOut *" style="label;fontStyle=0;strokeColor=none;fillColor=none;align=left;verticalAlign=top;overflow=hidden;spacingLeft=28;spacingRight=4;rotatable=0;points=[[0,0.5],[1,0.5]];portConstraint=eastwest;imageWidth=16;imageHeight=16;image=img/clipart/Gear_128x128.png" vertex="1" parent="IcKKIXfw-SHJYf1z34xY-47">
          <mxGeometry y="138" width="286" height="26" as="geometry" />
        </mxCell>
        <mxCell id="IcKKIXfw-SHJYf1z34xY-67" value="- message_in(): CommMessageIn*" style="label;fontStyle=0;strokeColor=none;fillColor=none;align=left;verticalAlign=top;overflow=hidden;spacingLeft=28;spacingRight=4;rotatable=0;points=[[0,0.5],[1,0.5]];portConstraint=eastwest;imageWidth=16;imageHeight=16;image=img/clipart/Gear_128x128.png" vertex="1" parent="IcKKIXfw-SHJYf1z34xY-47">
          <mxGeometry y="164" width="286" height="26" as="geometry" />
        </mxCell>
        <mxCell id="IcKKIXfw-SHJYf1z34xY-70" value="- send_timeout(): int" style="label;fontStyle=0;strokeColor=none;fillColor=none;align=left;verticalAlign=top;overflow=hidden;spacingLeft=28;spacingRight=4;rotatable=0;points=[[0,0.5],[1,0.5]];portConstraint=eastwest;imageWidth=16;imageHeight=16;image=img/clipart/Gear_128x128.png" vertex="1" parent="IcKKIXfw-SHJYf1z34xY-47">
          <mxGeometry y="190" width="286" height="28" as="geometry" />
        </mxCell>
        <mxCell id="IcKKIXfw-SHJYf1z34xY-71" value="- receive_timeout()Â : int" style="label;fontStyle=0;strokeColor=none;fillColor=none;align=left;verticalAlign=top;overflow=hidden;spacingLeft=28;spacingRight=4;rotatable=0;points=[[0,0.5],[1,0.5]];portConstraint=eastwest;imageWidth=16;imageHeight=16;image=img/clipart/Gear_128x128.png" vertex="1" parent="IcKKIXfw-SHJYf1z34xY-47">
          <mxGeometry y="218" width="286" height="26" as="geometry" />
        </mxCell>
        <mxCell id="IcKKIXfw-SHJYf1z34xY-75" value="- keep_alive_timeout(): int" style="label;fontStyle=0;strokeColor=none;fillColor=none;align=left;verticalAlign=top;overflow=hidden;spacingLeft=28;spacingRight=4;rotatable=0;points=[[0,0.5],[1,0.5]];portConstraint=eastwest;imageWidth=16;imageHeight=16;image=img/clipart/Gear_128x128.png" vertex="1" parent="IcKKIXfw-SHJYf1z34xY-47">
          <mxGeometry y="244" width="286" height="26" as="geometry" />
        </mxCell>
        <mxCell id="IcKKIXfw-SHJYf1z34xY-72" value="- first_timeout(): int" style="label;fontStyle=0;strokeColor=none;fillColor=none;align=left;verticalAlign=top;overflow=hidden;spacingLeft=28;spacingRight=4;rotatable=0;points=[[0,0.5],[1,0.5]];portConstraint=eastwest;imageWidth=16;imageHeight=16;image=img/clipart/Gear_128x128.png" vertex="1" parent="IcKKIXfw-SHJYf1z34xY-47">
          <mxGeometry y="270" width="286" height="26" as="geometry" />
        </mxCell>
        <mxCell id="IcKKIXfw-SHJYf1z34xY-73" value="- handle(int int): void" style="label;fontStyle=0;strokeColor=none;fillColor=none;align=left;verticalAlign=top;overflow=hidden;spacingLeft=28;spacingRight=4;rotatable=0;points=[[0,0.5],[1,0.5]];portConstraint=eastwest;imageWidth=16;imageHeight=16;image=img/clipart/Gear_128x128.png" vertex="1" parent="IcKKIXfw-SHJYf1z34xY-47">
          <mxGeometry y="296" width="286" height="26" as="geometry" />
        </mxCell>
        <mxCell id="IcKKIXfw-SHJYf1z34xY-76" value="# get_target(): CommTarget *" style="text;strokeColor=none;fillColor=none;align=left;verticalAlign=top;spacingLeft=4;spacingRight=4;overflow=hidden;rotatable=0;points=[[0,0.5],[1,0.5]];portConstraint=eastwest;" vertex="1" parent="IcKKIXfw-SHJYf1z34xY-47">
          <mxGeometry y="322" width="286" height="26" as="geometry" />
        </mxCell>
        <mxCell id="IcKKIXfw-SHJYf1z34xY-77" value="# get_connection(): CommConnection*" style="text;strokeColor=none;fillColor=none;align=left;verticalAlign=top;spacingLeft=4;spacingRight=4;overflow=hidden;rotatable=0;points=[[0,0.5],[1,0.5]];portConstraint=eastwest;" vertex="1" parent="IcKKIXfw-SHJYf1z34xY-47">
          <mxGeometry y="348" width="286" height="26" as="geometry" />
        </mxCell>
        <mxCell id="IcKKIXfw-SHJYf1z34xY-78" value="#Â get_message_out(): CommMessageOut*" style="text;strokeColor=none;fillColor=none;align=left;verticalAlign=top;spacingLeft=4;spacingRight=4;overflow=hidden;rotatable=0;points=[[0,0.5],[1,0.5]];portConstraint=eastwest;" vertex="1" parent="IcKKIXfw-SHJYf1z34xY-47">
          <mxGeometry y="374" width="286" height="26" as="geometry" />
        </mxCell>
        <mxCell id="IcKKIXfw-SHJYf1z34xY-79" value="#Â get_message_in(): CommMessageIn*" style="text;strokeColor=none;fillColor=none;align=left;verticalAlign=top;spacingLeft=4;spacingRight=4;overflow=hidden;rotatable=0;points=[[0,0.5],[1,0.5]];portConstraint=eastwest;" vertex="1" parent="IcKKIXfw-SHJYf1z34xY-47">
          <mxGeometry y="400" width="286" height="26" as="geometry" />
        </mxCell>
        <mxCell id="IcKKIXfw-SHJYf1z34xY-81" value="# get_seq(): long long" style="text;strokeColor=none;fillColor=none;align=left;verticalAlign=top;spacingLeft=4;spacingRight=4;overflow=hidden;rotatable=0;points=[[0,0.5],[1,0.5]];portConstraint=eastwest;" vertex="1" parent="IcKKIXfw-SHJYf1z34xY-47">
          <mxGeometry y="426" width="286" height="26" as="geometry" />
        </mxCell>
        <mxCell id="IcKKIXfw-SHJYf1z34xY-85" value="CommConnection" style="swimlane;fontStyle=1;align=center;verticalAlign=top;childLayout=stackLayout;horizontal=1;startSize=26;horizontalStack=0;resizeParent=1;resizeParentMax=0;resizeLast=0;collapsible=1;marginBottom=0;" vertex="1" parent="WIyWlLk6GJQsqaUBKTNV-1">
          <mxGeometry x="911" y="-580" width="160" height="86" as="geometry" />
        </mxCell>
        <mxCell id="IcKKIXfw-SHJYf1z34xY-86" value="+ field: type" style="text;strokeColor=none;fillColor=none;align=left;verticalAlign=top;spacingLeft=4;spacingRight=4;overflow=hidden;rotatable=0;points=[[0,0.5],[1,0.5]];portConstraint=eastwest;" vertex="1" parent="IcKKIXfw-SHJYf1z34xY-85">
          <mxGeometry y="26" width="160" height="26" as="geometry" />
        </mxCell>
        <mxCell id="IcKKIXfw-SHJYf1z34xY-87" value="" style="line;strokeWidth=1;fillColor=none;align=left;verticalAlign=middle;spacingTop=-1;spacingLeft=3;spacingRight=3;rotatable=0;labelPosition=right;points=[];portConstraint=eastwest;" vertex="1" parent="IcKKIXfw-SHJYf1z34xY-85">
          <mxGeometry y="52" width="160" height="8" as="geometry" />
        </mxCell>
        <mxCell id="IcKKIXfw-SHJYf1z34xY-88" value="+ method(type): type" style="text;strokeColor=none;fillColor=none;align=left;verticalAlign=top;spacingLeft=4;spacingRight=4;overflow=hidden;rotatable=0;points=[[0,0.5],[1,0.5]];portConstraint=eastwest;" vertex="1" parent="IcKKIXfw-SHJYf1z34xY-85">
          <mxGeometry y="60" width="160" height="26" as="geometry" />
        </mxCell>
        <mxCell id="IcKKIXfw-SHJYf1z34xY-89" value="CommMessageOut" style="swimlane;fontStyle=1;align=center;verticalAlign=top;childLayout=stackLayout;horizontal=1;startSize=26;horizontalStack=0;resizeParent=1;resizeParentMax=0;resizeLast=0;collapsible=1;marginBottom=0;" vertex="1" parent="WIyWlLk6GJQsqaUBKTNV-1">
          <mxGeometry x="911" y="-456" width="160" height="86" as="geometry" />
        </mxCell>
        <mxCell id="IcKKIXfw-SHJYf1z34xY-90" value="+ field: type" style="text;strokeColor=none;fillColor=none;align=left;verticalAlign=top;spacingLeft=4;spacingRight=4;overflow=hidden;rotatable=0;points=[[0,0.5],[1,0.5]];portConstraint=eastwest;" vertex="1" parent="IcKKIXfw-SHJYf1z34xY-89">
          <mxGeometry y="26" width="160" height="26" as="geometry" />
        </mxCell>
        <mxCell id="IcKKIXfw-SHJYf1z34xY-91" value="" style="line;strokeWidth=1;fillColor=none;align=left;verticalAlign=middle;spacingTop=-1;spacingLeft=3;spacingRight=3;rotatable=0;labelPosition=right;points=[];portConstraint=eastwest;" vertex="1" parent="IcKKIXfw-SHJYf1z34xY-89">
          <mxGeometry y="52" width="160" height="8" as="geometry" />
        </mxCell>
        <mxCell id="IcKKIXfw-SHJYf1z34xY-92" value="+ method(type): type" style="text;strokeColor=none;fillColor=none;align=left;verticalAlign=top;spacingLeft=4;spacingRight=4;overflow=hidden;rotatable=0;points=[[0,0.5],[1,0.5]];portConstraint=eastwest;" vertex="1" parent="IcKKIXfw-SHJYf1z34xY-89">
          <mxGeometry y="60" width="160" height="26" as="geometry" />
        </mxCell>
        <mxCell id="IcKKIXfw-SHJYf1z34xY-93" value="CommTarget" style="swimlane;fontStyle=1;align=center;verticalAlign=top;childLayout=stackLayout;horizontal=1;startSize=26;horizontalStack=0;resizeParent=1;resizeParentMax=0;resizeLast=0;collapsible=1;marginBottom=0;" vertex="1" parent="WIyWlLk6GJQsqaUBKTNV-1">
          <mxGeometry x="911" y="-720" width="160" height="86" as="geometry" />
        </mxCell>
        <mxCell id="IcKKIXfw-SHJYf1z34xY-94" value="+ field: type" style="text;strokeColor=none;fillColor=none;align=left;verticalAlign=top;spacingLeft=4;spacingRight=4;overflow=hidden;rotatable=0;points=[[0,0.5],[1,0.5]];portConstraint=eastwest;" vertex="1" parent="IcKKIXfw-SHJYf1z34xY-93">
          <mxGeometry y="26" width="160" height="26" as="geometry" />
        </mxCell>
        <mxCell id="IcKKIXfw-SHJYf1z34xY-95" value="" style="line;strokeWidth=1;fillColor=none;align=left;verticalAlign=middle;spacingTop=-1;spacingLeft=3;spacingRight=3;rotatable=0;labelPosition=right;points=[];portConstraint=eastwest;" vertex="1" parent="IcKKIXfw-SHJYf1z34xY-93">
          <mxGeometry y="52" width="160" height="8" as="geometry" />
        </mxCell>
        <mxCell id="IcKKIXfw-SHJYf1z34xY-96" value="+ method(type): type" style="text;strokeColor=none;fillColor=none;align=left;verticalAlign=top;spacingLeft=4;spacingRight=4;overflow=hidden;rotatable=0;points=[[0,0.5],[1,0.5]];portConstraint=eastwest;" vertex="1" parent="IcKKIXfw-SHJYf1z34xY-93">
          <mxGeometry y="60" width="160" height="26" as="geometry" />
        </mxCell>
        <mxCell id="IcKKIXfw-SHJYf1z34xY-97" value="CommMessageIn" style="swimlane;fontStyle=1;align=center;verticalAlign=top;childLayout=stackLayout;horizontal=1;startSize=26;horizontalStack=0;resizeParent=1;resizeParentMax=0;resizeLast=0;collapsible=1;marginBottom=0;" vertex="1" parent="WIyWlLk6GJQsqaUBKTNV-1">
          <mxGeometry x="911" y="-305" width="160" height="86" as="geometry" />
        </mxCell>
        <mxCell id="IcKKIXfw-SHJYf1z34xY-98" value="+ field: type" style="text;strokeColor=none;fillColor=none;align=left;verticalAlign=top;spacingLeft=4;spacingRight=4;overflow=hidden;rotatable=0;points=[[0,0.5],[1,0.5]];portConstraint=eastwest;" vertex="1" parent="IcKKIXfw-SHJYf1z34xY-97">
          <mxGeometry y="26" width="160" height="26" as="geometry" />
        </mxCell>
        <mxCell id="IcKKIXfw-SHJYf1z34xY-99" value="" style="line;strokeWidth=1;fillColor=none;align=left;verticalAlign=middle;spacingTop=-1;spacingLeft=3;spacingRight=3;rotatable=0;labelPosition=right;points=[];portConstraint=eastwest;" vertex="1" parent="IcKKIXfw-SHJYf1z34xY-97">
          <mxGeometry y="52" width="160" height="8" as="geometry" />
        </mxCell>
        <mxCell id="IcKKIXfw-SHJYf1z34xY-100" value="+ method(type): type" style="text;strokeColor=none;fillColor=none;align=left;verticalAlign=top;spacingLeft=4;spacingRight=4;overflow=hidden;rotatable=0;points=[[0,0.5],[1,0.5]];portConstraint=eastwest;" vertex="1" parent="IcKKIXfw-SHJYf1z34xY-97">
          <mxGeometry y="60" width="160" height="26" as="geometry" />
        </mxCell>
        <mxCell id="IcKKIXfw-SHJYf1z34xY-105" style="edgeStyle=orthogonalEdgeStyle;rounded=0;orthogonalLoop=1;jettySize=auto;html=1;exitX=1;exitY=0.5;exitDx=0;exitDy=0;entryX=0;entryY=0.5;entryDx=0;entryDy=0;startArrow=diamondThin;startFill=1;endArrow=none;endFill=0;startSize=12;endSize=12;sourcePerimeterSpacing=0;strokeWidth=1;" edge="1" parent="WIyWlLk6GJQsqaUBKTNV-1" source="IcKKIXfw-SHJYf1z34xY-82" target="IcKKIXfw-SHJYf1z34xY-98">
          <mxGeometry relative="1" as="geometry" />
        </mxCell>
        <mxCell id="IcKKIXfw-SHJYf1z34xY-106" style="edgeStyle=orthogonalEdgeStyle;rounded=0;orthogonalLoop=1;jettySize=auto;html=1;exitX=1;exitY=0.5;exitDx=0;exitDy=0;entryX=0;entryY=0.5;entryDx=0;entryDy=0;startArrow=diamondThin;startFill=1;endArrow=none;endFill=0;startSize=12;endSize=12;sourcePerimeterSpacing=0;strokeWidth=1;" edge="1" parent="WIyWlLk6GJQsqaUBKTNV-1" source="IcKKIXfw-SHJYf1z34xY-82" target="IcKKIXfw-SHJYf1z34xY-94">
          <mxGeometry relative="1" as="geometry" />
        </mxCell>
        <mxCell id="IcKKIXfw-SHJYf1z34xY-107" style="edgeStyle=orthogonalEdgeStyle;rounded=0;orthogonalLoop=1;jettySize=auto;html=1;exitX=1;exitY=0.5;exitDx=0;exitDy=0;entryX=0;entryY=0.5;entryDx=0;entryDy=0;startArrow=diamondThin;startFill=1;endArrow=none;endFill=0;startSize=12;endSize=12;sourcePerimeterSpacing=0;strokeWidth=1;" edge="1" parent="WIyWlLk6GJQsqaUBKTNV-1" source="IcKKIXfw-SHJYf1z34xY-82" target="IcKKIXfw-SHJYf1z34xY-86">
          <mxGeometry relative="1" as="geometry" />
        </mxCell>
        <mxCell id="IcKKIXfw-SHJYf1z34xY-108" style="edgeStyle=orthogonalEdgeStyle;rounded=0;orthogonalLoop=1;jettySize=auto;html=1;exitX=1;exitY=0.5;exitDx=0;exitDy=0;entryX=0;entryY=0.5;entryDx=0;entryDy=0;startArrow=diamondThin;startFill=1;endArrow=none;endFill=0;startSize=12;endSize=12;sourcePerimeterSpacing=0;strokeWidth=1;" edge="1" parent="WIyWlLk6GJQsqaUBKTNV-1" source="IcKKIXfw-SHJYf1z34xY-82" target="IcKKIXfw-SHJYf1z34xY-90">
          <mxGeometry relative="1" as="geometry" />
        </mxCell>
        <mxCell id="IcKKIXfw-SHJYf1z34xY-112" value="ParallelTask" style="swimlane;fontStyle=1;align=center;verticalAlign=top;childLayout=stackLayout;horizontal=1;startSize=26;horizontalStack=0;resizeParent=1;resizeParentMax=0;resizeLast=0;collapsible=1;marginBottom=0;" vertex="1" parent="WIyWlLk6GJQsqaUBKTNV-1">
          <mxGeometry x="-240" y="-396" width="280" height="190" as="geometry" />
        </mxCell>
        <mxCell id="IcKKIXfw-SHJYf1z34xY-116" value="# subtasks: SubTask **" style="text;strokeColor=none;fillColor=none;align=left;verticalAlign=top;spacingLeft=4;spacingRight=4;overflow=hidden;rotatable=0;points=[[0,0.5],[1,0.5]];portConstraint=eastwest;" vertex="1" parent="IcKKIXfw-SHJYf1z34xY-112">
          <mxGeometry y="26" width="280" height="26" as="geometry" />
        </mxCell>
        <mxCell id="IcKKIXfw-SHJYf1z34xY-113" value="# subtasks_nr: size_t" style="text;strokeColor=none;fillColor=none;align=left;verticalAlign=top;spacingLeft=4;spacingRight=4;overflow=hidden;rotatable=0;points=[[0,0.5],[1,0.5]];portConstraint=eastwest;" vertex="1" parent="IcKKIXfw-SHJYf1z34xY-112">
          <mxGeometry y="52" width="280" height="26" as="geometry" />
        </mxCell>
        <mxCell id="IcKKIXfw-SHJYf1z34xY-117" value="- nleft: size_t" style="text;strokeColor=none;fillColor=none;align=left;verticalAlign=top;spacingLeft=4;spacingRight=4;overflow=hidden;rotatable=0;points=[[0,0.5],[1,0.5]];portConstraint=eastwest;" vertex="1" parent="IcKKIXfw-SHJYf1z34xY-112">
          <mxGeometry y="78" width="280" height="26" as="geometry" />
        </mxCell>
        <mxCell id="IcKKIXfw-SHJYf1z34xY-114" value="" style="line;strokeWidth=1;fillColor=none;align=left;verticalAlign=middle;spacingTop=-1;spacingLeft=3;spacingRight=3;rotatable=0;labelPosition=right;points=[];portConstraint=eastwest;" vertex="1" parent="IcKKIXfw-SHJYf1z34xY-112">
          <mxGeometry y="104" width="280" height="8" as="geometry" />
        </mxCell>
        <mxCell id="IcKKIXfw-SHJYf1z34xY-115" value="+ get_subtasks(size_t *): SubTask **" style="text;strokeColor=none;fillColor=none;align=left;verticalAlign=top;spacingLeft=4;spacingRight=4;overflow=hidden;rotatable=0;points=[[0,0.5],[1,0.5]];portConstraint=eastwest;" vertex="1" parent="IcKKIXfw-SHJYf1z34xY-112">
          <mxGeometry y="112" width="280" height="26" as="geometry" />
        </mxCell>
        <mxCell id="IcKKIXfw-SHJYf1z34xY-118" value="+ set_subtasks(SubTaskÂ  **, size_t): void" style="text;strokeColor=none;fillColor=none;align=left;verticalAlign=top;spacingLeft=4;spacingRight=4;overflow=hidden;rotatable=0;points=[[0,0.5],[1,0.5]];portConstraint=eastwest;" vertex="1" parent="IcKKIXfw-SHJYf1z34xY-112">
          <mxGeometry y="138" width="280" height="26" as="geometry" />
        </mxCell>
        <mxCell id="IcKKIXfw-SHJYf1z34xY-119" value="+ dispatch(): void" style="label;fontStyle=0;strokeColor=none;fillColor=none;align=left;verticalAlign=top;overflow=hidden;spacingLeft=28;spacingRight=4;rotatable=0;points=[[0,0.5],[1,0.5]];portConstraint=eastwest;imageWidth=16;imageHeight=16;image=img/clipart/Gear_128x128.png" vertex="1" parent="IcKKIXfw-SHJYf1z34xY-112">
          <mxGeometry y="164" width="280" height="26" as="geometry" />
        </mxCell>
        <mxCell id="IcKKIXfw-SHJYf1z34xY-121" style="edgeStyle=orthogonalEdgeStyle;rounded=0;orthogonalLoop=1;jettySize=auto;html=1;exitX=0;exitY=0.5;exitDx=0;exitDy=0;entryX=1;entryY=0.5;entryDx=0;entryDy=0;startArrow=diamondThin;startFill=1;endArrow=none;endFill=0;startSize=12;endSize=12;sourcePerimeterSpacing=0;strokeWidth=1;" edge="1" parent="WIyWlLk6GJQsqaUBKTNV-1" source="IcKKIXfw-SHJYf1z34xY-44" target="IcKKIXfw-SHJYf1z34xY-113">
          <mxGeometry relative="1" as="geometry" />
        </mxCell>
        <mxCell id="IcKKIXfw-SHJYf1z34xY-158" value="friend class" style="text;html=1;align=center;verticalAlign=middle;resizable=0;points=[];autosize=1;strokeColor=none;fillColor=none;" vertex="1" parent="WIyWlLk6GJQsqaUBKTNV-1">
          <mxGeometry x="-120" y="480" width="80" height="20" as="geometry" />
        </mxCell>
        <mxCell id="IcKKIXfw-SHJYf1z34xY-160" value="friend class" style="text;html=1;align=center;verticalAlign=middle;resizable=0;points=[];autosize=1;strokeColor=none;fillColor=none;" vertex="1" parent="WIyWlLk6GJQsqaUBKTNV-1">
          <mxGeometry x="160" y="-650" width="80" height="20" as="geometry" />
        </mxCell>
        <mxCell id="IcKKIXfw-SHJYf1z34xY-161" value="Communicator" style="swimlane;fontStyle=1;align=center;verticalAlign=top;childLayout=stackLayout;horizontal=1;startSize=26;horizontalStack=0;resizeParent=1;resizeParentMax=0;resizeLast=0;collapsible=1;marginBottom=0;" vertex="1" parent="WIyWlLk6GJQsqaUBKTNV-1">
          <mxGeometry x="-620" y="92" width="160" height="86" as="geometry" />
        </mxCell>
        <mxCell id="IcKKIXfw-SHJYf1z34xY-162" value="+ field: type" style="text;strokeColor=none;fillColor=none;align=left;verticalAlign=top;spacingLeft=4;spacingRight=4;overflow=hidden;rotatable=0;points=[[0,0.5],[1,0.5]];portConstraint=eastwest;" vertex="1" parent="IcKKIXfw-SHJYf1z34xY-161">
          <mxGeometry y="26" width="160" height="26" as="geometry" />
        </mxCell>
        <mxCell id="IcKKIXfw-SHJYf1z34xY-163" value="" style="line;strokeWidth=1;fillColor=none;align=left;verticalAlign=middle;spacingTop=-1;spacingLeft=3;spacingRight=3;rotatable=0;labelPosition=right;points=[];portConstraint=eastwest;" vertex="1" parent="IcKKIXfw-SHJYf1z34xY-161">
          <mxGeometry y="52" width="160" height="8" as="geometry" />
        </mxCell>
        <mxCell id="IcKKIXfw-SHJYf1z34xY-164" value="+ method(type): type" style="text;strokeColor=none;fillColor=none;align=left;verticalAlign=top;spacingLeft=4;spacingRight=4;overflow=hidden;rotatable=0;points=[[0,0.5],[1,0.5]];portConstraint=eastwest;" vertex="1" parent="IcKKIXfw-SHJYf1z34xY-161">
          <mxGeometry y="60" width="160" height="26" as="geometry" />
        </mxCell>
        <mxCell id="IcKKIXfw-SHJYf1z34xY-165" style="edgeStyle=orthogonalEdgeStyle;rounded=0;orthogonalLoop=1;jettySize=auto;html=1;exitX=0;exitY=0.5;exitDx=0;exitDy=0;entryX=0.5;entryY=1;entryDx=0;entryDy=0;startArrow=diamondThin;startFill=0;endArrow=none;endFill=0;startSize=12;endSize=12;sourcePerimeterSpacing=0;strokeWidth=1;" edge="1" parent="WIyWlLk6GJQsqaUBKTNV-1" source="IcKKIXfw-SHJYf1z34xY-15" target="IcKKIXfw-SHJYf1z34xY-161">
          <mxGeometry relative="1" as="geometry" />
        </mxCell>
        <mxCell id="IcKKIXfw-SHJYf1z34xY-166" style="edgeStyle=orthogonalEdgeStyle;rounded=0;orthogonalLoop=1;jettySize=auto;html=1;exitX=1;exitY=0.5;exitDx=0;exitDy=0;entryX=0;entryY=0.5;entryDx=0;entryDy=0;startArrow=none;startFill=0;endArrow=none;endFill=0;startSize=12;endSize=12;sourcePerimeterSpacing=0;strokeWidth=1;dashed=1;" edge="1" parent="WIyWlLk6GJQsqaUBKTNV-1" source="IcKKIXfw-SHJYf1z34xY-162" target="IcKKIXfw-SHJYf1z34xY-146">
          <mxGeometry relative="1" as="geometry" />
        </mxCell>
        <mxCell id="IcKKIXfw-SHJYf1z34xY-167" value="friend class" style="text;whiteSpace=wrap;html=1;" vertex="1" parent="WIyWlLk6GJQsqaUBKTNV-1">
          <mxGeometry x="-458" y="100" width="90" height="30" as="geometry" />
        </mxCell>
      </root>
    </mxGraphModel>
  </diagram>
</mxfile>
